<svg width="196" height="30" viewBox="0 0 196 30" fill="none" xmlns="http://www.w3.org/2000/svg">
<path d="M15.045 16.4C16.4683 16.7033 17.6117 17.415 18.475 18.535C19.3383 19.6317 19.77 20.8917 19.77 22.315C19.77 24.3683 19.0467 26.0017 17.6 27.215C16.1767 28.405 14.1817 29 11.615 29H0.17V4.43H11.23C13.7267 4.43 15.675 5.00167 17.075 6.145C18.4983 7.28833 19.21 8.84 19.21 10.8C19.21 12.2467 18.825 13.4483 18.055 14.405C17.3083 15.3617 16.305 16.0267 15.045 16.4ZM6.155 14.37H10.075C11.055 14.37 11.8017 14.16 12.315 13.74C12.8517 13.2967 13.12 12.655 13.12 11.815C13.12 10.975 12.8517 10.3333 12.315 9.89C11.8017 9.44667 11.055 9.225 10.075 9.225H6.155V14.37ZM10.565 24.17C11.5683 24.17 12.3383 23.9483 12.875 23.505C13.435 23.0383 13.715 22.3733 13.715 21.51C13.715 20.6467 13.4233 19.97 12.84 19.48C12.28 18.99 11.4983 18.745 10.495 18.745H6.155V24.17H10.565ZM26.2513 7.44C25.2013 7.44 24.338 7.13667 23.6613 6.53C23.008 5.9 22.6813 5.13 22.6813 4.22C22.6813 3.28667 23.008 2.51667 23.6613 1.91C24.338 1.28 25.2013 0.964998 26.2513 0.964998C27.278 0.964998 28.118 1.28 28.7713 1.91C29.448 2.51667 29.7863 3.28667 29.7863 4.22C29.7863 5.13 29.448 5.9 28.7713 6.53C28.118 7.13667 27.278 7.44 26.2513 7.44ZM29.2263 9.47V29H23.2413V9.47H29.2263ZM45.4986 29L39.5486 20.81V29H33.5636V3.1H39.5486V17.415L45.4636 9.47H52.8486L44.7286 19.27L52.9186 29H45.4986ZM73.6093 18.92C73.6093 19.48 73.5743 20.0633 73.5043 20.67H59.9593C60.0526 21.8833 60.4376 22.8167 61.1143 23.47C61.8143 24.1 62.666 24.415 63.6693 24.415C65.1626 24.415 66.201 23.785 66.7843 22.525H73.1543C72.8276 23.8083 72.2326 24.9633 71.3693 25.99C70.5293 27.0167 69.4676 27.8217 68.1843 28.405C66.901 28.9883 65.466 29.28 63.8793 29.28C61.966 29.28 60.2626 28.8717 58.7693 28.055C57.276 27.2383 56.1093 26.0717 55.2693 24.555C54.4293 23.0383 54.0093 21.265 54.0093 19.235C54.0093 17.205 54.4176 15.4317 55.2343 13.915C56.0743 12.3983 57.241 11.2317 58.7343 10.415C60.2276 9.59833 61.9426 9.19 63.8793 9.19C65.7693 9.19 67.4493 9.58667 68.9193 10.38C70.3893 11.1733 71.5326 12.305 72.3493 13.775C73.1893 15.245 73.6093 16.96 73.6093 18.92ZM67.4843 17.345C67.4843 16.3183 67.1343 15.5017 66.4343 14.895C65.7343 14.2883 64.8593 13.985 63.8093 13.985C62.806 13.985 61.9543 14.2767 61.2543 14.86C60.5776 15.4433 60.1576 16.2717 59.9943 17.345H67.4843ZM93.3887 4.43C95.9787 4.43 98.242 4.94333 100.179 5.97C102.115 6.99667 103.609 8.44333 104.659 10.31C105.732 12.1533 106.269 14.2883 106.269 16.715C106.269 19.1183 105.732 21.2533 104.659 23.12C103.609 24.9867 102.104 26.4333 100.144 27.46C98.207 28.4867 95.9553 29 93.3887 29H84.1837V4.43H93.3887ZM93.0037 23.82C95.267 23.82 97.0287 23.2017 98.2887 21.965C99.5487 20.7283 100.179 18.9783 100.179 16.715C100.179 14.4517 99.5487 12.69 98.2887 11.43C97.0287 10.17 95.267 9.54 93.0037 9.54H90.1687V23.82H93.0037ZM128.023 18.92C128.023 19.48 127.988 20.0633 127.918 20.67H114.373C114.467 21.8833 114.852 22.8167 115.528 23.47C116.228 24.1 117.08 24.415 118.083 24.415C119.577 24.415 120.615 23.785 121.198 22.525H127.568C127.242 23.8083 126.647 24.9633 125.783 25.99C124.943 27.0167 123.882 27.8217 122.598 28.405C121.315 28.9883 119.88 29.28 118.293 29.28C116.38 29.28 114.677 28.8717 113.183 28.055C111.69 27.2383 110.523 26.0717 109.683 24.555C108.843 23.0383 108.423 21.265 108.423 19.235C108.423 17.205 108.832 15.4317 109.648 13.915C110.488 12.3983 111.655 11.2317 113.148 10.415C114.642 9.59833 116.357 9.19 118.293 9.19C120.183 9.19 121.863 9.58667 123.333 10.38C124.803 11.1733 125.947 12.305 126.763 13.775C127.603 15.245 128.023 16.96 128.023 18.92ZM121.898 17.345C121.898 16.3183 121.548 15.5017 120.848 14.895C120.148 14.2883 119.273 13.985 118.223 13.985C117.22 13.985 116.368 14.2767 115.668 14.86C114.992 15.4433 114.572 16.2717 114.408 17.345H121.898ZM143.116 29L137.166 20.81V29H131.181V3.1H137.166V17.415L143.081 9.47H150.466L142.346 19.27L150.536 29H143.116ZM164.821 9.26C167.061 9.26 168.858 10.0067 170.211 11.5C171.565 12.97 172.241 15 172.241 17.59V29H166.291V18.395C166.291 17.0883 165.953 16.0733 165.276 15.35C164.6 14.6267 163.69 14.265 162.546 14.265C161.403 14.265 160.493 14.6267 159.816 15.35C159.14 16.0733 158.801 17.0883 158.801 18.395V29H152.816V3.1H158.801V12.095C159.408 11.2317 160.236 10.5433 161.286 10.03C162.336 9.51667 163.515 9.26 164.821 9.26ZM185.29 29.28C183.377 29.28 181.65 28.8717 180.11 28.055C178.594 27.2383 177.392 26.0717 176.505 24.555C175.642 23.0383 175.21 21.265 175.21 19.235C175.21 17.2283 175.654 15.4667 176.54 13.95C177.427 12.41 178.64 11.2317 180.18 10.415C181.72 9.59833 183.447 9.19 185.36 9.19C187.274 9.19 189 9.59833 190.54 10.415C192.08 11.2317 193.294 12.41 194.18 13.95C195.067 15.4667 195.51 17.2283 195.51 19.235C195.51 21.2417 195.055 23.015 194.145 24.555C193.259 26.0717 192.034 27.2383 190.47 28.055C188.93 28.8717 187.204 29.28 185.29 29.28ZM185.29 24.1C186.434 24.1 187.402 23.68 188.195 22.84C189.012 22 189.42 20.7983 189.42 19.235C189.42 17.6717 189.024 16.47 188.23 15.63C187.46 14.79 186.504 14.37 185.36 14.37C184.194 14.37 183.225 14.79 182.455 15.63C181.685 16.4467 181.3 17.6483 181.3 19.235C181.3 20.7983 181.674 22 182.42 22.84C183.19 23.68 184.147 24.1 185.29 24.1Z" fill="black"/>
</svg>
